<?xml version="1.0" encoding="UTF-8"?><!DOCTYPE svg PUBLIC "-//W3C//DTD SVG 1.1//EN" "http://www.w3.org/Graphics/SVG/1.1/DTD/svg11.dtd"><svg xmlns="http://www.w3.org/2000/svg" xmlns:xlink="http://www.w3.org/1999/xlink"><symbol id="menu" viewBox="0 0 32 32"><path d="M0 4v3h32V4H0zm0 10v3h32v-3H0zm0 10v3h32v-3H0z"/></symbol><symbol id="search" viewBox="0 0 24 24"><path class="st0" d="M23 21.1l-4.5-4.5c1.3-1.7 2-3.8 2-6C20.5 5 16 .5 10.4.5S.4 5 .4 10.5s4.5 10.1 10.1 10.1c2.3 0 4.4-.8 6-2l4.5 4.5c.3.3.5.4 1 .4.8 0 1.4-.6 1.4-1.4.1-.4 0-.7-.4-1zM3.3 10.5c0-4 3.2-7.2 7.2-7.2s7.2 3.2 7.2 7.2-3.2 7.2-7.2 7.2-7.2-3.2-7.2-7.2z"/></symbol></svg>