<?xml version="1.0" encoding="utf-8"?>
<!-- Generator: Adobe Illustrator 22.1.0, SVG Export Plug-In . SVG Version: 6.00 Build 0)  -->
<svg version="1.1" id="Layer_1" xmlns="http://www.w3.org/2000/svg" xmlns:xlink="http://www.w3.org/1999/xlink" x="0px" y="0px"
	 viewBox="0 0 24 24" style="enable-background:new 0 0 24 24;" xml:space="preserve">
<path class="st0" d="M23,21.1l-4.5-4.5c1.3-1.7,2-3.8,2-6c0-5.6-4.5-10.1-10.1-10.1S0.4,5,0.4,10.5s4.5,10.1,10.1,10.1
	c2.3,0,4.4-0.8,6-2l4.5,4.5c0.3,0.3,0.5,0.4,1,0.4c0.8,0,1.4-0.6,1.4-1.4C23.5,21.7,23.4,21.4,23,21.1z M3.3,10.5
	c0-4,3.2-7.2,7.2-7.2s7.2,3.2,7.2,7.2s-3.2,7.2-7.2,7.2S3.3,14.5,3.3,10.5z"/>
</svg>
